<?xml version="1.0" standalone="no"?><!DOCTYPE svg PUBLIC "-//W3C//DTD SVG 1.1//EN" "http://www.w3.org/Graphics/SVG/1.1/DTD/svg11.dtd"><svg t="1534598867501" class="icon" style="" viewBox="0 0 1024 1024" version="1.1" xmlns="http://www.w3.org/2000/svg" p-id="7845" xmlns:xlink="http://www.w3.org/1999/xlink" width="200" height="200"><defs><style type="text/css"></style></defs><path d="M430.016 79.808c-16.352 0-32.928 8.352-49.664 25.088L219.872 269.504l-130.24 0C36.832 269.504 0 310.176 0 368.416l0 263.84c0 58.176 33.536 118.368 89.632 118.368l114.304 0 176.672 171.584c14.56 14.592 29.92 21.984 45.664 21.984 18.72 0 34.88-10.432 44.32-28.672C476.832 903.488 480 888.352 480 870.56L480 146.624C480 97.312 453.056 79.808 430.016 79.808z" p-id="7846"></path><path d="M416 867.264l-176.8-171.744c-5.984-5.824-13.984-9.024-22.272-9.024L89.632 686.496C77.408 686.464 64 658.048 64 632.256l0-263.84c0-15.872 4.448-34.752 25.632-34.752l143.712 0c8.64 0 16.864-3.456 22.88-9.664L416 160.096 416 867.264z" p-id="7847"></path><path d="M641.088 109.152c-17.568-0.416-32.48 13.248-33.056 30.976-0.64 17.696 13.216 32.544 30.88 33.152C815.968 179.36 960 331.616 960 512.672c0 181.184-141.024 327.936-321.088 334.144-17.664 0.608-31.488 15.456-30.88 33.152 0.608 17.344 14.784 31.008 31.936 31.008 0.384 0 0.736 0 1.12 0C855.808 911.008 1024 728.64 1024 512.672 1024 297.472 852.224 116.416 641.088 109.152z" p-id="7848"></path><path d="M768 510.048c0-108.992-83.328-200.544-189.664-208.416-17.568-1.632-32.928 11.968-34.24 29.632s11.936 33.056 29.568 34.336C646.752 371.04 704 434.496 704 510.048c0 75.552-57.248 139.008-130.336 144.448-17.632 1.28-30.88 16.672-29.568 34.304 1.248 16.864 15.296 29.728 31.872 29.728 0.768 0 1.6-0.032 2.368-0.096C684.672 710.56 768 619.04 768 510.048z" p-id="7849"></path></svg>
